<svg xmlns="http://www.w3.org/2000/svg" xmlns:xlink="http://www.w3.org/1999/xlink" width="500" zoomAndPan="magnify" viewBox="0 0 375 374.999991" height="500" preserveAspectRatio="xMidYMid meet" version="1.0"><defs><clipPath id="be71a7d8ae"><path d="M 56.25 0 L 318.75 0 C 333.667969 0 347.976562 5.925781 358.523438 16.476562 C 369.074219 27.023438 375 41.332031 375 56.25 L 375 318.75 C 375 349.816406 349.816406 375 318.75 375 L 56.25 375 C 41.332031 375 27.023438 369.074219 16.476562 358.523438 C 5.925781 347.976562 0 333.667969 0 318.75 L 0 56.25 C 0 25.183594 25.183594 0 56.25 0 Z M 56.25 0 " clip-rule="nonzero"/></clipPath><clipPath id="5df4e1be32"><path d="M 42 89.21875 L 333 89.21875 L 333 285.71875 L 42 285.71875 Z M 42 89.21875 " clip-rule="nonzero"/></clipPath></defs><g clip-path="url(#be71a7d8ae)"><rect x="-37.5" width="450" fill="#fcd24f" y="-37.499999" height="449.999989" fill-opacity="1"/></g><g clip-path="url(#5df4e1be32)"><path fill="#000000" d="M 324.085938 180.332031 C 311.425781 132.105469 296.835938 100.378906 263.230469 91.265625 C 258.097656 89.878906 253.269531 89.199219 248.460938 89.199219 C 238.320312 89.199219 230.164062 92.25 222.253906 95.207031 C 214.976562 97.925781 206.851562 100.902344 195.613281 101.914062 L 187.203125 102.15625 C 187.203125 102.203125 161.796875 98.484375 152.953125 95.175781 C 145.085938 92.226562 136.945312 89.183594 126.847656 89.183594 C 122.027344 89.183594 117.1875 89.859375 112.0625 91.253906 C 78.429688 100.375 63.84375 132.097656 51.210938 180.328125 C 36.5625 236.191406 40.617188 273.636719 62.320312 283.078125 C 65.851562 284.625 69.574219 285.40625 73.371094 285.40625 C 92.671875 285.40625 110.417969 265.140625 123.382812 250.328125 L 126.910156 246.246094 C 137.480469 233.898438 159.621094 226.820312 187.644531 226.820312 C 218.117188 226.820312 236.851562 232.8125 248.367188 246.265625 L 251.898438 250.355469 C 264.847656 265.152344 282.582031 285.398438 301.898438 285.398438 C 305.71875 285.398438 309.425781 284.613281 312.9375 283.078125 C 334.644531 273.640625 338.699219 236.195312 324.085938 180.332031 Z M 141.523438 184.105469 L 127.035156 184.105469 L 127.035156 198.121094 C 127.035156 203.261719 122.503906 207.597656 117.148438 207.597656 C 111.777344 207.597656 107.246094 203.261719 107.246094 198.121094 L 107.246094 184.105469 L 93.636719 184.105469 C 88.503906 184.105469 84.15625 179.578125 84.15625 174.21875 C 84.15625 168.855469 88.496094 164.332031 93.636719 164.332031 L 107.246094 164.332031 L 107.246094 150.300781 C 107.246094 145.167969 111.78125 140.824219 117.148438 140.824219 C 122.503906 140.824219 127.035156 145.167969 127.035156 150.300781 L 127.035156 164.332031 L 141.523438 164.332031 C 146.652344 164.332031 151.003906 168.855469 151.003906 174.21875 C 151.007812 179.582031 146.65625 184.105469 141.523438 184.105469 Z M 244.421875 201.304688 C 236.394531 201.304688 229.871094 194.792969 229.871094 186.78125 C 229.871094 178.769531 236.410156 172.261719 244.421875 172.261719 C 252.433594 172.261719 258.945312 178.777344 258.945312 186.78125 C 258.945312 194.792969 252.425781 201.304688 244.421875 201.304688 Z M 271.546875 174.210938 C 263.523438 174.210938 257.011719 167.691406 257.011719 159.683594 C 257.011719 151.683594 263.535156 145.167969 271.546875 145.167969 C 279.558594 145.167969 286.085938 151.683594 286.089844 159.683594 C 286.089844 167.695312 279.558594 174.210938 271.546875 174.210938 Z M 271.546875 174.210938 " fill-opacity="1" fill-rule="nonzero"/></g></svg>